# Blender v3.0.0 OBJ File: ''
# www.blender.org
mtllib glazkov2.mtl
o Cube
v 0.850000 1.000000 -1.000000
v 0.850000 -1.000000 -1.000000
v 0.850000 1.000000 1.000000
v 0.850000 -1.000000 1.000000
v -0.850000 1.000000 -1.000000
v -0.850000 -1.000000 -1.000000
v -0.850000 1.000000 1.000000
v -0.850000 -1.000000 1.000000
v 0.000000 -1.609314 -1.462472
v 0.000000 1.609314 1.462472
v 0.000000 -1.609314 1.462472
v 0.000000 1.609314 -1.462472
vt 0.875000 0.500000
vt 0.750000 0.750000
vt 0.750000 0.500000
vt 0.625000 0.875000
vt 0.375000 1.000000
vt 0.375000 0.875000
vt 0.625000 0.000000
vt 0.375000 0.250000
vt 0.375000 0.000000
vt 0.375000 0.500000
vt 0.250000 0.750000
vt 0.250000 0.500000
vt 0.625000 0.500000
vt 0.375000 0.750000
vt 0.625000 0.375000
vt 0.375000 0.375000
vt 0.625000 0.250000
vt 0.125000 0.750000
vt 0.125000 0.500000
vt 0.625000 0.750000
vt 0.875000 0.750000
vt 0.625000 1.000000
vn -0.5826 0.8128 0.0000
vn -0.4779 0.0000 0.8784
vn -1.0000 0.0000 0.0000
vn 0.5826 -0.8128 0.0000
vn 1.0000 0.0000 0.0000
vn 0.4779 0.0000 -0.8784
vn -0.4779 0.0000 -0.8784
vn -0.5826 -0.8128 0.0000
vn 0.4779 0.0000 0.8784
vn 0.5826 0.8128 0.0000
usemtl Material
s off
f 5/1/1 10/2/1 12/3/1
f 10/4/2 8/5/2 11/6/2
f 7/7/3 6/8/3 8/9/3
f 2/10/4 11/11/4 9/12/4
f 1/13/5 4/14/5 2/10/5
f 12/15/6 2/10/6 9/16/6
f 5/17/7 9/16/7 6/8/7
f 9/12/8 8/18/8 6/19/8
f 3/20/9 11/6/9 4/14/9
f 12/3/10 3/20/10 1/13/10
f 5/1/1 7/21/1 10/2/1
f 10/4/2 7/22/2 8/5/2
f 7/7/3 5/17/3 6/8/3
f 2/10/4 4/14/4 11/11/4
f 1/13/5 3/20/5 4/14/5
f 12/15/6 1/13/6 2/10/6
f 5/17/7 12/15/7 9/16/7
f 9/12/8 11/11/8 8/18/8
f 3/20/9 10/4/9 11/6/9
f 12/3/10 10/2/10 3/20/10
