# Blender v3.0.0 OBJ File: ''
# www.blender.org
mtllib saveliev1.mtl
o Savelyev_1_Cylinder.002
v -1.000000 0.000000 0.000000
v 0.000000 1.000000 0.000000
v 0.000000 0.000000 -1.000000
v 1.000000 0.000000 0.000000
v 0.000000 -0.000000 1.000000
v 0.000000 -1.000000 -0.000000
vt 1.000000 0.750000
vt 0.500000 1.000000
vt 0.750000 0.750000
vt 0.500000 0.750000
vt 0.250000 0.750000
vt 0.000000 0.750000
vt 0.500000 0.500000
vn -0.5774 0.5774 -0.5774
vn 0.5774 0.5774 -0.5774
vn 0.5774 0.5774 0.5774
vn -0.5774 0.5774 0.5774
vn -0.5774 -0.5774 0.5774
vn 0.5774 -0.5774 0.5774
vn 0.5774 -0.5774 -0.5774
vn -0.5774 -0.5774 -0.5774
usemtl None
s 1
f 1/1/1 2/2/1 3/3/1
f 3/3/2 2/2/2 4/4/2
f 4/4/3 2/2/3 5/5/3
f 5/5/4 2/2/4 1/6/4
f 6/7/5 5/5/5 1/6/5
f 6/7/6 4/4/6 5/5/6
f 6/7/7 3/3/7 4/4/7
f 6/7/8 1/1/8 3/3/8
