# Blender v3.0.0 OBJ File: ''
# www.blender.org
mtllib tolochny2.mtl
o Tolochniy_2_Cylinder
v -0.769752 -0.307901 -0.000000
v -0.384876 -0.307900 -0.538826
v -0.230926 -0.769751 -0.230926
v -0.384876 -0.769752 -0.000000
v 0.384876 -0.307900 -0.538826
v 0.230926 -0.769751 -0.230926
v 0.769752 -0.307901 -0.000000
v 0.384876 -0.769752 -0.000000
v 0.384876 -0.307901 0.538826
v 0.230925 -0.769752 0.230926
v -0.230925 -0.769752 0.230926
v -0.384876 -0.307901 0.538826
v -0.384876 0.769753 0.000000
v -0.230925 0.769752 0.230926
v 0.230925 0.769752 0.230926
v 0.384876 0.769753 0.000000
v 0.230926 0.769753 -0.230926
v -0.230926 0.769753 -0.230926
v -0.769752 0.307901 0.000000
v -0.384876 0.307901 0.538826
v 0.384876 0.307901 0.538826
v 0.769752 0.307901 0.000000
v 0.384876 0.307901 -0.538826
v -0.384876 0.307901 -0.538826
vt 0.833333 0.833333
vt 1.000000 1.000000
vt 1.000000 0.833333
vt 0.666667 0.833333
vt 0.833333 1.000000
vt 0.500000 1.000000
vt 0.666667 1.000000
vt 0.333333 0.833333
vt 0.500000 0.833333
vt 0.042154 0.130000
vt 0.042154 0.370000
vt 0.457846 0.370000
vt 0.166667 0.833333
vt 0.333333 1.000000
vt -0.000000 1.000000
vt 0.166667 1.000000
vt 0.957846 0.130000
vt 0.957846 0.370000
vt 0.542154 0.370000
vt -0.000000 0.500000
vt 0.166667 0.666667
vt 0.166667 0.500000
vt -0.000000 0.666667
vt 0.333333 0.500000
vt 0.333333 0.666667
vt 0.500000 0.500000
vt 0.500000 0.666667
vt 0.666667 0.666667
vt 0.666667 0.500000
vt 0.833333 0.666667
vt 0.833333 0.500000
vt 1.000000 0.500000
vt 1.000000 0.666667
vt 0.250000 0.490000
vt 0.457846 0.130000
vt 0.250000 0.010000
vt -0.000000 0.833333
vt 0.750000 0.490000
vt 0.542154 0.130000
vt 0.750000 0.010000
vn -0.6810 -0.5560 -0.4766
vn -0.6809 -0.5561 -0.4766
vn 0.0000 -0.5547 -0.8321
vn 0.6810 -0.5560 -0.4766
vn 0.6809 -0.5561 -0.4766
vn 0.6810 -0.5560 0.4766
vn 0.6809 -0.5561 0.4766
vn 0.0000 -1.0000 -0.0000
vn 0.0000 -0.5547 0.8321
vn -0.6808 -0.5562 0.4767
vn -0.6809 -0.5561 0.4766
vn 0.0000 1.0000 0.0000
vn -0.6809 0.5561 0.4766
vn -0.6810 0.5560 0.4766
vn -0.8137 -0.0000 0.5812
vn 0.0000 0.5547 0.8321
vn 0.0000 -0.0000 1.0000
vn 0.6809 0.5561 0.4766
vn 0.6810 0.5560 0.4766
vn 0.8137 -0.0000 0.5812
vn 0.6809 0.5561 -0.4766
vn 0.6810 0.5560 -0.4766
vn 0.8137 0.0000 -0.5812
vn 0.0000 0.5547 -0.8321
vn 0.0000 0.0000 -1.0000
vn -0.6809 0.5561 -0.4766
vn -0.6810 0.5560 -0.4766
vn -0.8137 0.0000 -0.5812
usemtl None
s 1
f 2/1/1 4/2/2 1/3/2
f 5/4/3 3/5/3 2/1/3
f 5/4/4 8/6/5 6/7/5
f 9/8/6 8/6/7 7/9/7
f 10/10/8 11/11/8 3/12/8
f 12/13/9 10/14/9 9/8/9
f 12/13/10 4/15/11 11/16/11
f 17/17/12 18/18/12 14/19/12
f 13/20/13 20/21/14 14/22/13
f 19/23/15 12/13/15 20/21/15
f 15/24/16 20/21/16 21/25/16
f 20/21/17 9/8/17 21/25/17
f 16/26/18 21/25/19 22/27/18
f 21/25/20 7/9/20 22/27/20
f 16/26/21 23/28/22 17/29/21
f 22/27/23 5/4/23 23/28/23
f 17/29/24 24/30/24 18/31/24
f 23/28/25 2/1/25 24/30/25
f 13/32/26 24/30/27 19/33/26
f 24/30/28 1/3/28 19/33/28
f 2/1/1 3/5/2 4/2/2
f 5/4/3 6/7/3 3/5/3
f 5/4/4 7/9/5 8/6/5
f 9/8/6 10/14/7 8/6/7
f 4/34/8 3/12/8 11/11/8
f 3/12/8 6/35/8 10/10/8
f 6/35/8 8/36/8 10/10/8
f 12/13/9 11/16/9 10/14/9
f 12/13/10 1/37/11 4/15/11
f 18/18/12 13/38/12 14/19/12
f 14/19/12 15/39/12 17/17/12
f 15/39/12 16/40/12 17/17/12
f 13/20/13 19/23/13 20/21/14
f 19/23/15 1/37/15 12/13/15
f 15/24/16 14/22/16 20/21/16
f 20/21/17 12/13/17 9/8/17
f 16/26/18 15/24/18 21/25/19
f 21/25/20 9/8/20 7/9/20
f 16/26/21 22/27/21 23/28/22
f 22/27/23 7/9/23 5/4/23
f 17/29/24 23/28/24 24/30/24
f 23/28/25 5/4/25 2/1/25
f 13/32/26 18/31/26 24/30/27
f 24/30/28 2/1/28 1/3/28
